#!OML:ASF F:\VICON\USERDATA\INSTALL\rory3\rory3.ASF
:FULLY-SPECIFIED
:DEGREES
2018
root 9.31628 17.6524 3.58459 -540.263 -37.3782 176.801
lowerback 11.5608 0.719518 0.0236143
upperback 0.482827 0.883784 -0.282897
thorax -5.97724 0.404352 -0.453388
lowerneck -20.6077 -2.74266 -12.3902
upperneck 32.6749 -3.03337 6.49415
head 15.1712 -2.38663 4.19101
rclavicle 4.49999e-014 -5.96354e-015
rhumerus -40.7403 -15.7562 -75.3702
rradius 31.2442
rwrist 8.62777
rhand -17.9654 11.5457
rfingers 7.12502
rthumb 8.30375 -18.2711
lclavicle 4.49999e-014 -5.96354e-015
lhumerus -30.9516 6.63093 78.0772
lradius 30.2659
lwrist -6.21559
lhand -19.6949 24.5922
lfingers 7.12502
lthumb 6.63433 54.4683
rfemur -8.35161 -1.9544 20.3228
rtibia 36.4154
rfoot -22.2309 -1.43621
rtoes 8.00829
lfemur -5.98416 -1.0999 -21.9042
ltibia 27.434
lfoot -22.1954 -16.5352
ltoes -17.4966
2019
root 9.2831 17.6596 3.62558 -540.18 -37.2608 176.494
lowerback 11.7169 0.731086 0.0502154
upperback 0.517856 0.893581 -0.374369
thorax -6.02582 0.405654 -0.567776
lowerneck -20.6905 -2.6844 -12.2517
upperneck 32.6969 -2.87473 6.20031
head 15.1733 -2.34134 4.07114
rclavicle 1.01082e-013 6.36111e-015
rhumerus -40.8101 -15.5306 -75.3154
rradius 31.2026
rwrist 8.77109
rhand -17.4339 10.9164
rfingers 7.12502
rthumb 8.81665 -18.8794
lclavicle 1.01082e-013 6.36111e-015
lhumerus -30.857 7.54127 77.9843
lradius 30.1367
lwrist -6.72644
lhand -19.5461 24.6185
lfingers 7.12502
lthumb 6.77801 54.49
rfemur -8.32365 -2.15985 19.7343
rtibia 36.4268
rfoot -22.1977 -0.684488
rtoes 8.7451
lfemur -6.00561 -0.952709 -22.3302
ltibia 27.6518
lfoot -22.7663 -15.7801
ltoes -20.3424
2020
root 9.25181 17.6599 3.66603 -540.078 -37.2445 176.294
lowerback 11.7881 0.749556 0.199635
upperback 0.545289 0.930582 -0.461509
thorax -6.03249 0.417612 -0.750446
lowerneck -20.8007 -2.71677 -12.3516
upperneck 32.6925 -2.86064 6.20949
head 15.198 -2.34172 4.09617
rclavicle -2.03506e-014 -9.54166e-015
rhumerus -40.9099 -15.4876 -75.1911
rradius 31.1949
rwrist 9.13879
rhand -16.8905 10.0527
rfingers 7.12502
rthumb 9.34103 -19.7204
lclavicle -2.03506e-014 -9.54166e-015
lhumerus -30.9092 7.96656 78.0749
lradius 30.3677
lwrist -6.65731
lhand -19.5191 24.9348
lfingers 7.12502
lthumb 6.80408 54.8054
rfemur -8.33112 -2.54406 19.2471
rtibia 36.3826
rfoot -22.1882 -0.0223752
rtoes 8.38
lfemur -6.22347 -0.741195 -22.6283
ltibia 28.0054
lfoot -23.0598 -15.6438
ltoes -22.1095
2021
root 9.2261 17.6598 3.71068 -540.211 -37.3174 176.686
lowerback 11.8435 0.701671 0.798671
upperback 0.504576 0.953612 -0.400921
thorax -6.09733 0.413395 -1.03006
lowerneck -20.8303 -2.74446 -12.567
upperneck 32.6653 -2.86748 6.37792
head 15.2005 -2.34461 4.20489
rclavicle 7.8669e-014 0
rhumerus -40.8518 -15.4047 -74.972
rradius 30.8815
rwrist 9.46624
rhand -17.0167 10.3596
rfingers 7.12502
rthumb 9.21923 -19.4189
lclavicle 7.8669e-014 0
lhumerus -31.0684 8.24253 78.2675
lradius 30.6463
lwrist -6.18879
lhand -19.9815 25.0498
lfingers 7.12502
lthumb 6.35763 54.9344
rfemur -8.42998 -2.73871 19.3699
rtibia 36.2243
rfoot -22.0815 0.231717
rtoes 6.90221
lfemur -6.69728 -0.68266 -22.3732
ltibia 28.4984
lfoot -23.1518 -15.8845
ltoes -22.8929
2022
root 9.20346 17.6684 3.75348 -540.435 -37.4201 177.299
lowerback 11.8594 0.615223 1.39306
upperback 0.44353 0.932902 -0.234718
thorax -6.16456 0.388967 -1.1883
lowerneck -20.7753 -2.6819 -12.5397
upperneck 32.5954 -2.76653 6.33175
head 15.1406 -2.30106 4.19682
rclavicle 5.93372e-014 -5.56597e-015
rhumerus -40.6908 -15.1614 -74.7441
rradius 30.4133
rwrist 9.75112
rhand -17.4356 11.3234
rfingers 7.12502
rthumb 8.815 -18.4725
lclavicle 5.93372e-014 -5.56597e-015
lhumerus -31.1765 8.93156 78.3394
lradius 30.6503
lwrist -6.12834
lhand -20.3313 24.4176
lfingers 7.12502
lthumb 6.01995 54.3121
rfemur -8.54227 -2.75051 19.7509
rtibia 35.9655
rfoot -21.8909 0.274141
rtoes 5.97521
lfemur -7.25647 -0.842524 -21.8927
ltibia 29.0747
lfoot -23.2774 -16.0406
ltoes -23.4679
2023
root 9.18243 17.6763 3.7917 -540.502 -37.6034 177.594
lowerback 11.8502 0.528879 1.59887
upperback 0.414267 0.855636 -0.102288
thorax -6.19177 0.347037 -1.15234
lowerneck -20.7424 -2.65059 -12.3913
upperneck 32.5093 -2.68987 6.11224
head 15.0777 -2.27465 4.08812
rclavicle 8.34399e-014 -1.70955e-014
rhumerus -40.6281 -14.7336 -74.5869
rradius 30.2129
rwrist 10.0806
rhand -17.4808 11.7
rfingers 7.12502
rthumb 8.77143 -18.0977
lclavicle 8.34399e-014 -1.70955e-014
lhumerus -31.1686 9.65424 78.3911
lradius 30.541
lwrist -6.24609
lhand -20.2616 24.1099
lfingers 7.12502
lthumb 6.08722 54.0024
rfemur -8.56705 -2.77555 19.8777
rtibia 35.6292
rfoot -21.6822 0.168434
rtoes 5.24725
lfemur -7.77584 -1.07159 -21.6237
ltibia 29.682
lfoot -23.2964 -16.3492
ltoes -23.1255
2024
root 9.16186 17.6853 3.82349 -540.541 -37.799 177.717
lowerback 11.8834 0.476211 1.61464
upperback 0.418957 0.794589 0.00664351
thorax -6.20869 0.31776 -1.03673
lowerneck -20.8083 -2.69687 -12.362
upperneck 32.4878 -2.71421 6.00541
head 15.0847 -2.29196 4.03248
rclavicle 8.49804e-015 -1.03368e-014
rhumerus -40.6183 -14.4024 -74.387
rradius 30.1949
rwrist 10.4886
rhand -17.2707 11.7601
rfingers 7.12502
rthumb 8.97418 -18.029
lclavicle 8.49804e-015 -1.03368e-014
lhumerus -31.1994 9.80127 78.6933
lradius 30.6938
lwrist -5.95281
lhand -20.0441 24.8422
lfingers 7.12502
lthumb 6.29725 54.7286
rfemur -8.47625 -2.72248 19.888
rtibia 35.279
rfoot -21.5157 -0.0308621
rtoes 5.21928
lfemur -8.17236 -1.36505 -21.4606
ltibia 30.2388
lfoot -23.3074 -16.3993
ltoes -22.4864
2025
root 9.13997 17.6981 3.85413 -540.728 -38.0284 178.042
lowerback 11.963 0.402284 1.76545
upperback 0.4083 0.727686 0.165296
thorax -6.26688 0.281708 -0.944518
lowerneck -20.9165 -2.71189 -12.3313
upperneck 32.5188 -2.71443 5.96308
head 15.1229 -2.29272 4.01062
rclavicle 7.54139e-014 -6.75868e-015
rhumerus -40.6213 -14.0808 -74.174
rradius 30.1911
rwrist 10.8372
rhand -17.3203 11.7661
rfingers 7.12502
rthumb 8.92625 -18.0251
lclavicle 7.54139e-014 -6.75868e-015
lhumerus -31.351 9.63489 79.0899
lradius 31.0329
lwrist -5.33575
lhand -20.1164 25.3064
lfingers 7.12502
lthumb 6.2274 55.1949
rfemur -8.32633 -2.56695 20.0961
rtibia 34.9343
rfoot -21.3645 -0.341989
rtoes 6.06634
lfemur -8.51598 -1.68305 -21.0939
ltibia 30.7093
lfoot -23.5288 -15.7524
ltoes -22.8835
2026
root 9.1183 17.7069 3.88855 -540.877 -38.1923 178.308
lowerback 12.0222 0.345318 1.84384
upperback 0.426797 0.672381 0.337927
thorax -6.28335 0.253655 -0.798038
lowerneck -21.0333 -2.71211 -12.3426
upperneck 32.5145 -2.66396 5.90913
head 15.1413 -2.27591 3.99979
rclavicle -1.60022e-014 -1.23246e-014
rhumerus -40.5333 -13.5815 -74.0117
rradius 30.1861
rwrist 10.8261
rhand -17.429 11.781
rfingers 7.12502
rthumb 8.82142 -18.0147
lclavicle -1.60022e-014 -1.23246e-014
lhumerus -31.416 9.47282 79.5321
lradius 31.2555
lwrist -4.66842
lhand -20.434 25.209
lfingers 7.12502
lthumb 5.92077 55.1063
rfemur -8.17206 -2.46798 20.2333
rtibia 34.5627
rfoot -21.146 -0.601323
rtoes 5.97687
lfemur -8.84422 -1.94845 -20.7354
ltibia 31.1301
lfoot -23.8296 -14.5522
ltoes -23.7929
2027
root 9.09704 17.7173 3.92356 -540.978 -38.2751 178.316
lowerback 12.2484 0.316682 1.73531
upperback 0.463871 0.626234 0.435292
thorax -6.37447 0.23328 -0.627927
lowerneck -21.0748 -2.70348 -12.2508
upperneck 32.3884 -2.5979 5.74534
head 15.0807 -2.24791 3.92315
rclavicle 4.22417e-014 -6.75868e-015
rhumerus -40.4336 -13.1369 -73.867
rradius 30.3566
rwrist 10.3695
rhand -17.0846 11.4459
rfingers 7.12502
rthumb 9.15375 -18.3355
lclavicle 4.22417e-014 -6.75868e-015
lhumerus -31.4013 9.52023 79.8669
lradius 31.2857
lwrist -4.3684
lhand -20.4273 25.0411
lfingers 7.12502
lthumb 5.92726 54.9382
rfemur -7.89605 -2.33218 20.1353
rtibia 34.1436
rfoot -20.8693 -0.841936
rtoes 5.28378
lfemur -9.00689 -2.28149 -20.5606
ltibia 31.5243
lfoot -24.0836 -12.8881
ltoes -24.6884
2028
root 9.07411 17.7332 3.95607 -541.225 -38.3638 178.457
lowerback 12.5989 0.297021 1.74983
upperback 0.468919 0.611738 0.521551
thorax -6.56694 0.223537 -0.545089
lowerneck -21.0773 -2.72439 -12.2243
upperneck 32.3102 -2.65003 5.80866
head 15.0512 -2.25132 3.93415
rclavicle -7.61842e-014 -7.55382e-015
rhumerus -40.4049 -13.0248 -73.5997
rradius 30.6185
rwrist 9.69875
rhand -16.1589 10.7967
rfingers 7.12502
rthumb 10.0469 -18.9435
lclavicle -7.61842e-014 -7.55382e-015
lhumerus -31.4964 9.41193 80.177
lradius 31.365
lwrist -4.31805
lhand -20.2685 24.8289
lfingers 7.12502
lthumb 6.08063 54.7216
rfemur -7.52298 -2.11012 20.1623
rtibia 33.6946
rfoot -20.5986 -1.112
rtoes 4.93414
lfemur -9.07082 -2.64439 -20.2148
ltibia 31.8822
lfoot -24.1323 -11.2099
ltoes -25.0707
